Coordinates
version=1
nRows=60
nColumns=12
inDegrees=yes

Units are S.I. units (second, meters, Newtons, ...)
Angles are in degrees

endheader
time	SC_y	SC_z	SC_x	AC_y	AC_z	AC_x	GH_y	GH_z	GH_yy	EL_x	PS_y
       0.0              -21.24         -3.423          66.99          50.87         -16.26         -8.903          19.58         -17.15         -154.2           51.0          69.25
  0.009255              -21.24          -3.42          66.99          50.87         -16.26         -8.901           19.6         -17.15         -154.2          51.01          69.25
   0.01851              -21.24         -3.416          66.99          50.87         -16.26         -8.899          19.62         -17.14         -154.1          51.02          69.24
   0.02777              -21.24         -3.413          66.99          50.87         -16.26         -8.897          19.65         -17.14         -154.1          51.03          69.23
   0.03702              -21.25         -3.409           67.0          50.87         -16.26         -8.895          19.67         -17.13         -154.1          51.05          69.22
   0.04628              -21.25         -3.404           67.0          50.88         -16.26         -8.893           19.7         -17.13         -154.0          51.06          69.21
   0.05553              -21.25           -3.4           67.0          50.88         -16.26          -8.89          19.73         -17.13         -154.0          51.08           69.2
   0.06479              -21.26         -3.395           67.0          50.88         -16.26         -8.888          19.76         -17.12         -153.9           51.1          69.19
   0.07404              -21.26         -3.389           67.0          50.88         -16.26         -8.885          19.79         -17.12         -153.9          51.12          69.18
    0.0833              -21.27         -3.384           67.0          50.88         -16.26         -8.882          19.83         -17.11         -153.8          51.14          69.17
   0.09255              -21.27         -3.377           67.0          50.89         -16.26         -8.879          19.87          -17.1         -153.8          51.16          69.15
    0.1018              -21.27         -3.371           67.0          50.89         -16.26         -8.875          19.91          -17.1         -153.7          51.18          69.14
    0.1111              -21.28         -3.364           67.0          50.89         -16.26         -8.871          19.95         -17.09         -153.7           51.2          69.12
    0.1203              -21.29         -3.356           67.0           50.9         -16.26         -8.867           20.0         -17.08         -153.6          51.23          69.11
    0.1296              -21.29         -3.348           67.0           50.9         -16.26         -8.863          20.05         -17.07         -153.5          51.26          69.09
    0.1388               -21.3         -3.339           67.0           50.9         -16.26         -8.858          20.11         -17.07         -153.4          51.29          69.07
    0.1481              -21.31         -3.329           67.0          50.91         -16.26         -8.853          20.17         -17.06         -153.3          51.32          69.05
    0.1573              -21.31         -3.318           67.0          50.91         -16.26         -8.847          20.23         -17.05         -153.2          51.36          69.02
    0.1666              -21.32         -3.307          67.01          50.92         -16.26         -8.841           20.3         -17.03         -153.1           51.4           69.0
    0.1759              -21.33         -3.294          67.01          50.92         -16.26         -8.834          20.38         -17.02         -153.0          51.45          68.97
    0.1851              -21.34          -3.28          67.01          50.93         -16.26         -8.826          20.47         -17.01         -152.9          51.49          68.94
    0.1944              -21.35         -3.265          67.01          50.93         -16.26         -8.818          20.57         -16.99         -152.7          51.55           68.9
    0.2036              -21.37         -3.248          67.01          50.94         -16.25         -8.809          20.67         -16.98         -152.6          51.61          68.87
    0.2129              -21.38         -3.229          67.01          50.95         -16.25         -8.799          20.79         -16.96         -152.4          51.67          68.83
    0.2221               -21.4         -3.208          67.02          50.96         -16.25         -8.787          20.92         -16.94         -152.2          51.75          68.78
    0.2314              -21.42         -3.185          67.02          50.97         -16.25         -8.775          21.07         -16.91         -152.0          51.83          68.73
    0.2406              -21.43         -3.159          67.02          50.98         -16.25         -8.761          21.23         -16.89         -151.8          51.92          68.67
    0.2499              -21.46         -3.129          67.02          50.99         -16.25         -8.745          21.41         -16.86         -151.5          52.02          68.61
    0.2592              -21.48         -3.096          67.03           51.0         -16.25         -8.727          21.62         -16.83         -151.2          52.14          68.53
    0.2684              -21.51         -3.058          67.03          51.02         -16.24         -8.707          21.85         -16.79         -150.9          52.27          68.45
    0.2777              -21.54         -3.015          67.04          51.04         -16.24         -8.684          22.12         -16.75         -150.5          52.42          68.36
    0.2869              -21.58         -2.966          67.04          51.06         -16.24         -8.657          22.43          -16.7         -150.0          52.59          68.25
    0.2962              -21.62         -2.909          67.05          51.08         -16.24         -8.627          22.78         -16.64         -149.5          52.79          68.12
    0.3054              -21.67         -2.842          67.05          51.11         -16.23         -8.591           23.2         -16.58         -148.9          53.02          67.98
    0.3147              -21.73         -2.765          67.06          51.14         -16.23         -8.549          23.68          -16.5         -148.2          53.29          67.81
    0.3239               -21.8         -2.673          67.07          51.18         -16.22           -8.5          24.25         -16.41         -147.4          53.61          67.61
    0.3332              -21.88         -2.565          67.08          51.23         -16.22         -8.442          24.93          -16.3         -146.4          53.98          67.37
    0.3425              -21.98         -2.434          67.09          51.28         -16.21         -8.372          25.74         -16.17         -145.2          54.44          67.08
    0.3517               -22.1         -2.277          67.11          51.35          -16.2         -8.287          26.72         -16.02         -143.7          54.98          66.74
     0.361              -22.24         -2.084          67.13          51.43         -16.19         -8.183          27.92         -15.83         -142.0          55.65          66.32
    0.3702              -22.42         -1.846          67.15          51.53         -16.18         -8.056           29.4         -15.59         -139.8          56.48          65.79
    0.3795              -22.65          -1.55          67.18          51.65         -16.17         -7.896          31.24          -15.3         -137.1          57.51          65.14
    0.3887              -22.93         -1.177          67.22          51.81         -16.15         -7.696          33.56         -14.93         -133.7          58.81          64.33
     0.398              -23.29        -0.7021          67.27          52.01         -16.12          -7.44          36.52         -14.46         -129.4          60.46          63.28
    0.4072              -23.74       -0.09464          67.33          52.26         -16.09         -7.114           40.3         -13.87         -123.8          62.57          61.95
    0.4165              -24.33         0.6849          67.41          52.59         -16.05         -6.695          45.15          -13.1         -116.7          65.28          60.24
    0.4258              -25.08          1.681          67.51           53.0          -16.0          -6.16          51.35         -12.11         -107.6          68.75          58.06
     0.435              -26.03          2.933          67.64          53.53         -15.94         -5.487          59.14         -10.88         -96.21           73.1          55.31
    0.4443              -27.18          4.458           67.8          54.16         -15.86         -4.666          68.64         -9.374          -82.3          78.41          51.97
    0.4535              -28.51          6.227          67.98           54.9         -15.77         -3.716          79.65          -7.63         -66.16          84.56          48.09
    0.4628              -29.95          8.142          68.17          55.71         -15.67         -2.686          91.57         -5.741          -48.7          91.22          43.89
     0.472               -31.4          10.06          68.37          56.51         -15.57         -1.657          103.5         -3.852         -31.23          97.88          39.69
    0.4813              -32.73          11.83          68.55          57.25         -15.48        -0.7063          114.5         -2.108          -15.1          104.0          35.81
    0.4905              -33.88          13.35           68.7          57.88          -15.4         0.1139          124.0        -0.6029         -1.177          109.3          32.46
    0.4998              -34.82           14.6          68.83          58.41         -15.34         0.7869          131.8         0.6321          10.24          113.7          29.72
     0.509              -35.57           15.6          68.93          58.82         -15.28          1.322          138.0          1.614          19.33          117.2          27.53
    0.5183              -36.16          16.38          69.01          59.15         -15.24          1.741          142.8          2.383          26.44          119.9          25.82
    0.5276              -36.62          16.99          69.07           59.4         -15.21          2.068          146.6          2.982          31.98          122.0          24.49
    0.5368              -36.98          17.46          69.12           59.6         -15.19          2.323          149.6           3.45          36.31          123.6          23.45
    0.5461              -37.26          17.83          69.16          59.76         -15.17          2.524          151.9          3.819          39.71          124.9          22.63
